<?xml version="1.0" standalone="no"?>
<!DOCTYPE svg PUBLIC "-//W3C//DTD SVG 20010904//EN"
 "http://www.w3.org/TR/2001/REC-SVG-20010904/DTD/svg10.dtd">
<svg version="1.0" xmlns="http://www.w3.org/2000/svg"
 width="1024.000000pt" height="1024.000000pt" viewBox="0 0 1024.000000 1024.000000"
 preserveAspectRatio="xMidYMid meet">
<metadata>
Created by potrace 1.14, written by Peter Selinger 2001-2017
</metadata>
<g transform="translate(0.000000,1024.000000) scale(0.100000,-0.100000)"
fill="#000000" stroke="none">
<path d="M5119 10074 c0 -10 -2 -32 -5 -49 -2 -16 -6 -52 -8 -80 -3 -27 -7
-60 -10 -71 -2 -12 -7 -39 -11 -60 -11 -76 -15 -93 -25 -118 -5 -15 -8 -26 -5
-26 2 0 -2 -21 -10 -47 -8 -27 -16 -60 -19 -75 -2 -15 -10 -45 -17 -65 -15
-48 -20 -67 -20 -71 1 -1 -5 -18 -13 -37 -9 -20 -15 -36 -15 -38 1 -7 -62
-186 -81 -232 -9 -22 -27 -67 -40 -100 -13 -33 -27 -64 -32 -70 -4 -5 -8 -16
-8 -25 0 -9 -5 -21 -12 -28 -6 -6 -13 -18 -14 -26 -1 -8 -37 -86 -79 -173 -43
-87 -84 -171 -92 -188 -30 -65 -164 -311 -200 -367 -12 -21 -23 -40 -23 -43 0
-2 -20 -39 -45 -81 -25 -41 -45 -80 -45 -85 0 -5 -4 -9 -9 -9 -5 0 -11 -8 -15
-17 -7 -20 -56 -105 -65 -113 -3 -3 -12 -16 -19 -29 -8 -13 -22 -38 -32 -56
-10 -18 -24 -43 -32 -56 -7 -13 -17 -27 -21 -30 -4 -3 -16 -20 -25 -37 -31
-59 -107 -177 -114 -180 -5 -2 -8 -8 -8 -13 0 -9 -68 -118 -81 -129 -3 -3 -23
-34 -44 -70 -22 -36 -44 -70 -50 -76 -5 -6 -19 -27 -30 -47 -11 -20 -23 -37
-27 -37 -5 0 -8 -4 -8 -9 0 -6 -45 -78 -100 -161 -55 -82 -100 -153 -100 -155
0 -3 -11 -18 -25 -33 -14 -15 -25 -30 -25 -33 0 -7 -131 -204 -150 -226 -5 -7
-10 -15 -10 -18 0 -10 -63 -100 -72 -103 -4 -2 -8 -9 -8 -16 0 -7 -8 -21 -17
-32 -10 -11 -27 -35 -37 -54 -11 -19 -28 -44 -38 -54 -10 -11 -18 -25 -18 -30
0 -6 -10 -23 -23 -38 -12 -15 -40 -55 -61 -90 -22 -35 -69 -108 -105 -163 -36
-55 -70 -108 -76 -117 -5 -10 -61 -99 -122 -198 -62 -99 -113 -184 -113 -189
0 -5 -4 -11 -8 -13 -7 -3 -82 -128 -144 -238 -11 -19 -34 -60 -51 -90 -74
-131 -242 -461 -307 -605 -22 -47 -99 -243 -110 -280 -7 -22 -17 -46 -23 -52
-5 -7 -7 -13 -4 -13 3 0 -6 -32 -19 -72 -25 -73 -68 -236 -79 -298 -3 -19 -8
-46 -10 -60 -16 -93 -20 -157 -19 -325 1 -253 8 -326 69 -670 3 -16 8 -37 11
-45 3 -8 15 -49 25 -90 11 -41 21 -79 23 -85 1 -5 11 -37 21 -70 11 -33 20
-62 20 -65 1 -3 7 -18 13 -33 7 -16 12 -33 12 -38 0 -5 4 -17 10 -27 5 -9 25
-56 45 -105 35 -87 122 -267 165 -342 13 -22 35 -60 49 -85 14 -25 40 -66 58
-91 18 -26 33 -51 33 -57 0 -6 3 -12 8 -14 4 -2 30 -34 57 -73 27 -38 54 -75
60 -82 5 -6 20 -24 32 -40 12 -15 31 -39 43 -53 12 -14 40 -47 63 -74 58 -67
223 -233 287 -286 28 -25 62 -54 75 -65 86 -76 335 -255 355 -255 6 0 10 -4
10 -9 0 -5 8 -12 18 -15 9 -4 35 -18 57 -31 22 -14 65 -37 95 -52 30 -16 61
-34 68 -41 8 -7 18 -10 23 -7 5 4 9 1 9 -4 0 -6 5 -11 10 -11 6 0 53 -20 104
-45 52 -25 99 -45 104 -45 4 0 26 -8 48 -19 99 -47 501 -164 614 -177 19 -3
46 -7 60 -9 153 -30 278 -39 530 -40 193 0 341 7 407 19 10 2 45 7 78 11 32 3
62 8 65 10 3 1 26 6 51 9 115 15 478 117 576 162 17 8 34 14 38 14 5 0 29 10
135 57 63 28 224 110 270 137 25 15 53 29 63 33 9 3 17 9 17 14 0 5 5 9 11 9
7 0 52 27 101 60 49 33 93 60 97 60 5 0 11 3 13 8 2 4 42 37 90 74 88 68 111
87 201 168 103 92 255 250 322 334 17 20 35 43 40 49 6 7 24 30 40 52 17 22
33 42 36 45 31 25 279 428 270 439 -1 2 1 7 6 10 11 8 143 290 143 306 0 4 6
21 14 38 17 36 68 190 87 257 17 63 17 63 23 88 3 12 8 31 11 42 12 48 41 186
49 238 15 85 15 88 33 247 8 77 9 444 1 500 -9 59 -17 110 -24 145 -3 14 -7
35 -9 46 -5 36 -67 258 -77 277 -5 10 -11 26 -13 35 -4 19 -37 110 -56 157 -7
17 -13 35 -14 40 -2 6 -13 33 -25 60 -12 28 -34 77 -48 110 -58 130 -272 548
-284 553 -5 2 -8 8 -8 13 0 6 -22 48 -50 95 -27 47 -50 89 -50 94 0 6 -4 10
-10 10 -5 0 -10 4 -10 9 0 11 -141 244 -153 252 -5 3 -8 9 -8 13 1 5 -13 28
-100 166 -16 25 -33 50 -39 57 -5 7 -10 14 -10 17 0 6 -160 251 -322 494 -59
89 -108 167 -108 171 0 5 -4 11 -8 13 -12 4 -232 335 -232 348 0 5 -3 10 -7
10 -5 0 -26 28 -48 63 -22 34 -42 64 -45 67 -4 3 -15 21 -26 40 -10 19 -22 37
-25 40 -13 12 -69 99 -69 108 0 6 -3 12 -7 14 -9 4 -53 65 -53 73 0 3 -5 11
-11 18 -5 7 -30 44 -55 82 -52 83 -54 86 -99 152 -19 29 -35 55 -35 57 0 3
-22 37 -48 78 -27 40 -68 106 -93 146 -24 40 -52 85 -61 100 -10 15 -21 34
-25 42 -9 18 -179 308 -194 330 -5 8 -16 29 -25 45 -8 17 -26 50 -40 75 -14
25 -60 110 -101 190 -42 80 -80 149 -84 155 -5 5 -9 17 -9 27 0 10 -4 18 -10
18 -5 0 -9 3 -8 8 1 4 -13 39 -31 77 -18 39 -43 93 -56 120 -36 78 -105 243
-105 250 0 4 -6 21 -14 38 -7 18 -19 48 -26 67 -7 19 -16 44 -20 55 -19 44
-70 210 -70 226 0 10 -4 20 -9 23 -8 5 -26 82 -22 99 0 4 -3 7 -7 7 -4 0 -8 8
-9 18 -2 28 -10 74 -21 117 -17 66 -36 190 -48 315 -6 64 -13 91 -15 54z"/>
</g>
</svg>
